<svg id="visual" viewBox="0 0 960 540" width="960" height="540" xmlns="http://www.w3.org/2000/svg" xmlns:xlink="http://www.w3.org/1999/xlink" version="1.1"><rect x="0" y="0" width="960" height="540" fill="#fff"></rect><path d="M0 370L16 373.2C32 376.3 64 382.7 96 399.5C128 416.3 160 443.7 192 442.5C224 441.3 256 411.7 288 412C320 412.3 352 442.7 384 449.2C416 455.7 448 438.3 480 439.7C512 441 544 461 576 461.7C608 462.3 640 443.7 672 441.7C704 439.7 736 454.3 768 453.3C800 452.3 832 435.7 864 428.3C896 421 928 423 944 424L960 425L960 541L944 541C928 541 896 541 864 541C832 541 800 541 768 541C736 541 704 541 672 541C640 541 608 541 576 541C544 541 512 541 480 541C448 541 416 541 384 541C352 541 320 541 288 541C256 541 224 541 192 541C160 541 128 541 96 541C64 541 32 541 16 541L0 541Z" fill="#485fc7" stroke-linecap="round" stroke-linejoin="miter"></path></svg>